<svg width="25" height="17" viewBox="0 0 25 17" fill="none" xmlns="http://www.w3.org/2000/svg">
    <g clip-path="url(#clip0_285_16268)">
        <path opacity="0.2" d="M16.0102 1.56735H1.55142C0.875501 1.56735 0.0820312 2.34613 0.0820312 3.03674V14.0571C0.0820312 14.7478 0.875501 15.5265 1.55142 15.5265H19.9188C20.5947 15.5265 21.3882 14.7478 21.3882 14.0571V8.5249C20.7692 9.08165 20.0049 9.4511 19.1841 9.59021V9.64898C19.1841 10.1339 18.9196 10.3837 18.4494 10.3837H2.28611C1.81591 10.3837 1.55142 10.1339 1.55142 9.64898V8.91429C1.55142 8.42939 1.81591 8.1796 2.28611 8.1796H15.1653C14.7412 7.7096 14.4237 7.1535 14.2345 6.54938C14.0453 5.94525 13.9888 5.30738 14.0691 4.67942C14.1493 4.05147 14.3643 3.44827 14.6993 2.91114C15.0344 2.374 15.4815 1.91561 16.0102 1.56735V1.56735Z" fill="#697386" />
        <path d="M14.291 3.77143H0.0820312V5.97551H14.1C13.9766 5.23647 14.0423 4.47822 14.291 3.77143Z" fill="#697386" />
    </g>
    <path d="M18.8963 10.2857C17.5356 10.2857 16.2306 9.74388 15.2684 8.77941C14.3062 7.81493 13.7656 6.50683 13.7656 5.14286C13.7656 3.77889 14.3062 2.47078 15.2684 1.50631C16.2306 0.541835 17.5356 0 18.8963 0C20.257 0 21.562 0.541835 22.5242 1.50631C23.4864 2.47078 24.027 3.77889 24.027 5.14286C24.027 6.50683 23.4864 7.81493 22.5242 8.77941C21.562 9.74388 20.257 10.2857 18.8963 10.2857ZM16.8587 3.01224H16.2797L14.8651 3.73224V4.46694L15.9865 3.87918V7.27347H16.866V3.01224H16.8587ZM18.5445 3.6C18.9623 3.6 19.2554 3.8351 19.2554 4.17306C19.2554 4.54041 18.911 4.79755 18.4125 4.79755H18.1927V5.42204H18.4565C18.9842 5.42204 19.3434 5.68653 19.3434 6.06857C19.3434 6.43592 18.9916 6.68571 18.4932 6.68571C18.1267 6.68571 17.7602 6.56816 17.3791 6.34041V7.0751C17.7895 7.25143 18.2 7.34694 18.6031 7.34694C19.5633 7.34694 20.2229 6.85469 20.2229 6.14204C20.2229 5.64245 19.9151 5.23837 19.402 5.07673C19.8418 4.9298 20.1277 4.54041 20.1277 4.09959C20.1277 3.40898 19.5193 2.93878 18.6398 2.93878C18.2433 2.94318 17.8518 3.02816 17.489 3.18857V3.90857C17.8408 3.7102 18.2 3.6 18.5445 3.6ZM21.7108 5.20163C22.2459 5.20163 22.6197 5.51755 22.6197 5.92898C22.6197 6.36245 22.2459 6.66367 21.7108 6.66367C21.3883 6.66367 21.0512 6.56082 20.7067 6.34776V7.10449C21.0658 7.26612 21.4323 7.34694 21.7915 7.34694C21.982 7.34694 22.1579 7.31755 22.3265 7.27347C22.7077 6.64898 22.9275 5.92898 22.9275 5.15755L22.9129 4.84898C22.6404 4.68729 22.3279 4.60581 22.0113 4.61388C21.8794 4.61388 21.7402 4.62122 21.5936 4.64327V3.68816H22.649C22.5575 3.453 22.4446 3.22675 22.3119 3.01224H20.8313V5.32653C21.1245 5.25306 21.4177 5.20163 21.7108 5.20163Z" fill="#697386" />
    <defs>
        <clipPath id="clip0_285_16268">
            <rect width="23.5102" height="15.4286" fill="white" transform="translate(0.0820312 1.56735)" />
        </clipPath>
    </defs>
</svg>