<svg width="24" height="16" viewBox="0 0 24 16" fill="none" xmlns="http://www.w3.org/2000/svg">
    <g clip-path="url(#clip0_285_16262)">
        <path d="M22.0051 0H2.06439C0.963091 0 0.0703125 0.89543 0.0703125 2V14C0.0703125 15.1046 0.963091 16 2.06439 16H22.0051C23.1064 16 23.9992 15.1046 23.9992 14V2C23.9992 0.89543 23.1064 0 22.0051 0Z" fill="#252525" />
        <path d="M9.04378 13C11.797 13 14.029 10.7614 14.029 8C14.029 5.23858 11.797 3 9.04378 3C6.29054 3 4.05859 5.23858 4.05859 8C4.05859 10.7614 6.29054 13 9.04378 13Z" fill="#EB001B" />
        <path d="M15.0243 13C17.7775 13 20.0094 10.7614 20.0094 8C20.0094 5.23858 17.7775 3 15.0243 3C12.271 3 10.0391 5.23858 10.0391 8C10.0391 10.7614 12.271 13 15.0243 13Z" fill="#F79E1B" />
        <path fill-rule="evenodd" clip-rule="evenodd" d="M12.0331 3.99963C13.244 4.91184 14.0272 6.36418 14.0272 8C14.0272 9.63582 13.244 11.0882 12.0331 12.0004C10.8223 11.0882 10.0391 9.63582 10.0391 8C10.0391 6.36418 10.8223 4.91184 12.0331 3.99963Z" fill="#FF5F00" />
    </g>
    <defs>
        <clipPath id="clip0_285_16262">
            <rect width="23.9289" height="16" fill="white" transform="translate(0.0703125)" />
        </clipPath>
    </defs>
</svg>