<svg width="25" height="16" viewBox="0 0 25 16" fill="none" xmlns="http://www.w3.org/2000/svg">
    <g clip-path="url(#clip0_285_16261)">
        <path d="M21.8269 0.25H2.3847C1.2834 0.25 0.390625 1.14543 0.390625 2.25V13.75C0.390625 14.8546 1.2834 15.75 2.3847 15.75H21.8269C22.9282 15.75 23.821 14.8546 23.821 13.75V2.25C23.821 1.14543 22.9282 0.25 21.8269 0.25Z" fill="white" stroke="black" stroke-opacity="0.2" stroke-width="0.5" />
        <path d="M2.91916 5.91444C2.39756 5.62751 1.80228 5.39674 1.13672 5.23659L1.16464 5.11188H3.89351C4.26339 5.12489 4.56353 5.23651 4.66119 5.63071L5.25425 8.46659L5.43593 9.32073L7.09698 5.11188H8.89047L6.22448 11.2775H4.4309L2.91916 5.91444ZM10.2097 11.2841H8.51363L9.5745 5.11188H11.2705L10.2097 11.2841ZM16.3583 5.26277L16.1276 6.59559L15.9742 6.53004C15.6673 6.40525 15.2622 6.28054 14.7108 6.29371C14.0411 6.29371 13.7408 6.56277 13.7338 6.82546C13.7338 7.11441 14.0971 7.30484 14.6904 7.58725C15.6676 8.02719 16.1208 8.56557 16.1141 9.26819C16.1003 10.5486 14.9417 11.3761 13.162 11.3761C12.4011 11.3694 11.6682 11.2181 11.2704 11.0476L11.5078 9.66205L11.7311 9.76066C12.2825 9.99071 12.6453 10.089 13.3225 10.089C13.8108 10.089 14.3344 9.89838 14.3411 9.48488C14.3411 9.21565 14.118 9.01851 13.4618 8.71646C12.8198 8.42087 11.9614 7.92848 11.9753 7.04198C11.9826 5.84042 13.162 5 14.837 5C15.4931 5 16.0237 5.13789 16.3583 5.26277ZM18.6126 9.09749H20.0223C19.9526 8.78889 19.6314 7.31147 19.6314 7.31147L19.5129 6.77964C19.4291 7.00943 19.2827 7.38373 19.2897 7.37056C19.2897 7.37056 18.7522 8.7429 18.6126 9.09749ZM20.7062 5.11188L22.0745 11.284H20.5041C20.5041 11.284 20.3504 10.5748 20.3017 10.3581H18.124C18.0611 10.5222 17.7681 11.284 17.7681 11.284H15.9884L18.5077 5.62399C18.6823 5.22342 18.9897 5.11188 19.3942 5.11188H20.7062Z" fill="#171E6C" />
    </g>
    <defs>
        <clipPath id="clip0_285_16261">
            <rect width="23.9289" height="16" fill="white" transform="translate(0.140625)" />
        </clipPath>
    </defs>
</svg>